<svg width="18px" height="18px" viewBox="0 0 33 33" fill="none" xmlns="http://www.w3.org/2000/svg">
<path d="M16.4461 2.05566C13.4485 2.0592 10.5747 3.25154 8.45514 5.37114C6.33554 7.49074 5.1432 10.3645 5.13966 13.3621C5.13607 15.8117 5.93623 18.1948 7.41739 20.1459C7.41739 20.1459 7.72575 20.5519 7.77611 20.6105L16.4461 30.8356L25.1201 20.6054C25.1654 20.5509 25.4748 20.1459 25.4748 20.1459L25.4758 20.1428C26.9562 18.1926 27.756 15.8106 27.7525 13.3621C27.7489 10.3645 26.5566 7.49074 24.437 5.37114C22.3174 3.25154 19.4436 2.0592 16.4461 2.05566ZM16.4461 17.4735C15.6329 17.4735 14.838 17.2324 14.1619 16.7806C13.4858 16.3288 12.9588 15.6867 12.6476 14.9354C12.3364 14.1842 12.255 13.3575 12.4136 12.56C12.5723 11.7624 12.9639 11.0299 13.5389 10.4549C14.1138 9.87987 14.8464 9.48829 15.644 9.32965C16.4415 9.17101 17.2682 9.25243 18.0194 9.56362C18.7707 9.8748 19.4128 10.4018 19.8646 11.0779C20.3164 11.754 20.5575 12.5489 20.5575 13.3621C20.5561 14.4521 20.1225 15.497 19.3518 16.2678C18.581 17.0385 17.5361 17.4721 16.4461 17.4735Z" fill="#5041BC"/>
</svg>
